<svg width="36" height="36" viewBox="0 0 36 36" fill="none" xmlns="http://www.w3.org/2000/svg">
<path d="M28.0779 23.0156C27.1873 22.0313 25.4529 20.5781 25.4529 15.75C25.4529 12.1406 22.9216 9.23438 19.4529 8.48438V7.5C19.4529 6.70313 18.7966 6 17.9998 6C17.156 6 16.4998 6.70313 16.4998 7.5V8.48438C13.031 9.23438 10.4998 12.1406 10.4998 15.75C10.4998 20.5781 8.76538 22.0313 7.87476 23.0156C7.59351 23.2969 7.45288 23.6719 7.49976 24C7.49976 24.7969 8.06226 25.5 8.99976 25.5H26.9529C27.8904 25.5 28.4529 24.7969 28.4998 24C28.4998 23.6719 28.3591 23.2969 28.0779 23.0156ZM10.6404 23.25C11.6248 21.9844 12.7029 19.7813 12.7498 15.7969C12.7498 15.7969 12.7498 15.7969 12.7498 15.75C12.7498 12.8906 15.0935 10.5 17.9998 10.5C20.8591 10.5 23.2498 12.8906 23.2498 15.75C23.2498 15.7969 23.2029 15.7969 23.2029 15.7969C23.2498 19.7813 24.3279 21.9844 25.3123 23.25H10.6404ZM17.9998 30C19.6404 30 20.9529 28.6875 20.9529 27H14.9998C14.9998 28.6875 16.3123 30 17.9998 30Z" fill="white"/>
<rect x="0.75" y="0.75" width="34.5" height="34.5" stroke="#383838" stroke-width="1.5"/>
</svg>
