<svg width="42" height="42" viewBox="0 0 42 42" fill="none" xmlns="http://www.w3.org/2000/svg">
<rect x="0.940299" y="0.940299" width="40.1194" height="40.1194" rx="6.90308" fill="white" stroke="black" stroke-width="1.8806"/>
<g clip-path="url(#clip0_316_7777)">
<path fill-rule="evenodd" clip-rule="evenodd" d="M32.1987 26.6412L37.4733 24.2813C38.3159 23.9042 39.1388 24.8256 38.5784 25.5254L32.3633 33.0288C32.6264 32.8796 32.5314 33.0189 32.4037 33.2063C32.305 33.351 32.1867 33.5244 32.1987 33.6159C32.7115 37.7355 32.2346 41.3385 31.3356 44.3502C29.4595 44.8537 25.531 44.5653 21.9365 40.9709C22.4315 41.7683 23.6112 42.9033 25.0834 43.8322C27.31 44.9267 29.483 45.11 30.6811 45.0971C31.837 45.0854 32.7162 44.769 33.5696 44.4617C34.7011 44.0545 35.7874 43.6634 37.4136 44.0202C37.6173 44.063 40.6113 44.7667 41.6262 47.1654C42.0416 48.1491 42.218 49.6381 41.5831 50.0541C41.0619 50.3962 40.1685 49.9063 39.4983 49.537C38.461 48.9673 38.0017 48.4079 37.6246 47.9486C37.2709 47.5178 36.9895 47.175 36.3712 46.9944C36.3171 46.9782 36.2686 46.9599 36.22 46.9416C35.8955 46.8195 35.566 46.6954 33.5209 47.1654C33.0304 47.2797 32.2171 47.5226 31.5137 47.7327C31.0201 47.8802 30.5805 48.0115 30.3446 48.0708C28.9299 48.4198 26.2957 47.8685 20.1829 44.2856C24.5578 47.7965 27.5545 48.7791 29.4478 48.995C28.5326 50.75 27.5639 52.1346 26.7946 53.1155H24.7393L24.3102 49.447C24.2475 49.0154 23.84 48.7044 23.3736 48.7277L21.7473 48.8094C21.089 48.8405 20.4306 48.8405 19.7723 48.8094L18.146 48.7277C17.6797 48.7044 17.2721 49.0193 17.2094 49.447L16.7052 53.1155H14.6499C12.2164 50.013 7.8514 42.8572 9.44241 32.7644C9.47768 32.5467 9.42282 32.3251 9.28174 32.1502L4.17951 25.7275C3.62697 25.0316 4.44991 24.1102 5.29244 24.4873L10.1086 26.6412C10.5789 26.8511 11.1432 26.6489 11.3313 26.198C12.0131 24.5534 12.8752 22.8661 13.949 21.1361C14.0313 21 14.0744 20.8484 14.0666 20.6928L12.5461 15.8642C12.5147 15.1799 13.3416 14.7601 13.949 15.1488L17.5817 16.6262C17.8286 16.7817 18.146 16.8167 18.4242 16.7117C19.9251 16.1558 21.6023 16.1558 23.1071 16.7117C23.3854 16.8167 23.7028 16.7856 23.9497 16.6262L27.5824 15.1489C28.1898 14.7601 29.0127 15.18 28.9853 15.8642L27.4648 20.6928C27.457 20.8484 27.5001 21 27.5824 21.1361C28.7502 23.0139 29.6632 24.845 30.3725 26.6178C30.5567 27.0766 31.7245 26.855 32.1987 26.6412Z" fill="black"/>
<path d="M25.3643 23.9702C25.6268 23.9041 32.3357 20.6733 32.3357 20.6733Z" fill="black"/>
<path d="M25.3643 23.9702C25.6268 23.9041 32.3357 20.6733 32.3357 20.6733" stroke="black" stroke-width="1.12104" stroke-miterlimit="10" stroke-linecap="square"/>
<path d="M16.3865 23.9018C16.1239 23.8357 9.415 20.605 9.415 20.605Z" fill="black"/>
<path d="M16.3865 23.9018C16.1239 23.8357 9.415 20.605 9.415 20.605" stroke="black" stroke-width="1.12104" stroke-miterlimit="10" stroke-linecap="square"/>
<path d="M26.6689 26.4819C26.9315 26.4158 33.6404 23.1851 33.6404 23.1851Z" fill="black"/>
<path d="M26.6689 26.4819C26.9315 26.4158 33.6404 23.1851 33.6404 23.1851" stroke="black" stroke-width="1.12104" stroke-miterlimit="10" stroke-linecap="square"/>
<path d="M15.0818 26.4135C14.8192 26.3475 8.11031 23.1167 8.11031 23.1167Z" fill="black"/>
<path d="M15.0818 26.4135C14.8192 26.3475 8.11031 23.1167 8.11031 23.1167" stroke="black" stroke-width="1.12104" stroke-miterlimit="10" stroke-linecap="square"/>
<path d="M15.6509 30.5231C15.7181 30.1374 16.1855 29.9789 16.4734 30.2443L18.062 31.7084C18.1713 31.8091 18.32 31.8553 18.4671 31.8343L20.6059 31.5291C20.9935 31.4737 21.2887 31.8693 21.1253 32.2251L20.2238 34.1885C20.1617 34.3235 20.1637 34.4792 20.2292 34.6127L21.1804 36.5524C21.3528 36.9039 21.0678 37.3069 20.6789 37.2615L18.533 37.0108C18.3855 36.9935 18.238 37.0435 18.1313 37.147L16.5804 38.6511C16.2994 38.9236 15.8281 38.7771 15.7511 38.3932L15.3264 36.2749C15.2972 36.1293 15.2041 36.0044 15.0727 35.9349L13.163 34.9248C12.8169 34.7417 12.8106 34.2482 13.152 34.0564L15.0353 32.9979C15.1649 32.9251 15.2548 32.7979 15.2803 32.6515L15.6509 30.5231Z" fill="white"/>
</g>
<circle cx="8.3597" cy="8.62826" r="3.3597" fill="black"/>
<path d="M7.6875 9.97254V7.15039L15.8852 7.95672V9.16621L7.6875 9.97254Z" fill="black"/>
<path d="M35.4182 7.82109C36.1896 6.79168 36.6143 5.86709 36.3617 5.61982C36.1009 5.36179 35.0661 5.80259 33.8593 6.72449C33.6443 6.60623 33.4159 6.49334 33.174 6.39389C32.8622 5.54187 32.4295 4.82155 31.8865 5.03926C31.1098 5.35104 30.4728 6.0418 30.1207 6.49065C30.1072 6.49603 30.0938 6.50409 30.0804 6.51215C28.8816 7.28892 27.9946 8.48228 28 9.93099C28 9.93368 28 9.93636 28 9.93905L28.0054 9.93636C28.7633 11.1727 30.1449 11.7183 31.5747 11.7452C33.1014 11.7748 34.0851 10.6325 34.6764 9.57352C36.1869 9.71865 37.2997 9.55201 37.3857 9.19454C37.4663 8.85319 36.617 8.28877 35.4182 7.82109ZM29.9003 9.58964C29.4917 9.58964 29.1611 9.25905 29.1611 8.85051C29.1611 8.44197 29.4917 8.11137 29.9003 8.11137C30.3088 8.11137 30.6394 8.44197 30.6394 8.85051C30.6394 9.25905 30.3088 9.58964 29.9003 9.58964Z" fill="black"/>
<defs>
<clipPath id="clip0_316_7777">
<rect width="36" height="26" fill="white" transform="translate(4 15)"/>
</clipPath>
</defs>
</svg>
