<svg width="24" height="24" viewBox="0 0 24 24" fill="none" xmlns="http://www.w3.org/2000/svg">
<path d="M14.2188 7.625L13.5938 8.25C13.4688 8.40625 13.4688 8.625 13.625 8.78125L16.125 11.1875H5.375C5.15625 11.1875 5 11.375 5 11.5625V12.4375C5 12.6562 5.15625 12.8125 5.375 12.8125H16.125L13.625 15.25C13.4688 15.4062 13.4688 15.625 13.5938 15.7812L14.2188 16.4062C14.375 16.5312 14.5938 16.5312 14.75 16.4062L18.875 12.2812C19 12.125 19 11.9062 18.875 11.75L14.75 7.625C14.5938 7.5 14.375 7.5 14.2188 7.625Z" fill="black"/>
</svg>
