<svg width="36" height="36" viewBox="0 0 36 36" fill="none" xmlns="http://www.w3.org/2000/svg">
<path d="M18 7.5C11.3438 7.5 6 11.9062 6 17.25C6 19.5 6.89062 21.5625 8.4375 23.2031C7.78125 25.0312 6.32812 26.625 6.28125 26.625C5.95312 26.9531 5.90625 27.4219 6.04688 27.8438C6.23438 28.2656 6.65625 28.5 7.125 28.5C9.98438 28.5 12.2812 27.3281 13.6406 26.3438C15 26.7656 16.4531 27 18 27C24.6094 27 30 22.6406 30 17.25C30 11.9062 24.6094 7.5 18 7.5ZM18 24.75C16.7344 24.75 15.4688 24.5625 14.2969 24.1875L13.2188 23.8594L12.3281 24.5156C11.6719 24.9844 10.7344 25.5 9.60938 25.875C9.98438 25.3125 10.3125 24.6562 10.5469 24L11.0625 22.6875L10.0781 21.6562C9.23438 20.7656 8.25 19.2656 8.25 17.25C8.25 13.125 12.6094 9.75 18 9.75C23.3438 9.75 27.75 13.125 27.75 17.25C27.75 21.4219 23.3438 24.75 18 24.75Z" fill="white"/>
<rect x="0.75" y="0.75" width="34.5" height="34.5" stroke="#383838" stroke-width="1.5"/>
</svg>
