<svg width="183" height="260" viewBox="0 0 183 260" fill="none" xmlns="http://www.w3.org/2000/svg">
<path d="M67.164 121.715V123.259H78.801V121.715H67.164ZM66.7492 132.914V134.458H79.1005V132.914H66.7492ZM65.9657 126.162V135.403H67.6479V127.729H78.317V135.403H80.0683V126.162H65.9657ZM72.9018 115.954C75.0679 118.904 79.1236 122.153 82.7414 124.042C83.041 123.535 83.4557 122.936 83.8936 122.521C80.2066 120.885 76.174 117.682 73.6853 114.249H71.934C70.1136 117.221 66.2653 120.747 62.2097 122.798C62.6014 123.167 63.0623 123.789 63.2927 124.18C67.2331 122.037 71.0123 118.765 72.9018 115.954Z" fill="black"/>
<ellipse cx="92.1739" cy="177.764" rx="89.9793" ry="12.0704" fill="#808080"/>
<path d="M47.9812 188.278C60.873 189.253 75.3588 189.787 90.155 189.831C104.951 189.876 119.601 189.43 132.806 188.533L92.1739 177.764L47.9812 188.278Z" fill="#808080"/>
<rect width="182.153" height="182.153" rx="34.0166" fill="url(#paint0_linear_415_7770)"/>
<rect x="7.71606" y="6.87695" width="166.711" height="168.898" rx="34.719" transform="rotate(-0.337043 7.71606 6.87695)" fill="#E9E9E9"/>
<rect x="11.1284" y="11.8789" width="159.374" height="151.808" rx="31.2058" transform="rotate(-0.337043 11.1284 11.8789)" fill="white"/>
<circle cx="31.2732" cy="33.4683" r="13.7164" fill="url(#paint1_radial_415_7770)"/>
<path d="M28.53 38.9544V27.4326L61.9979 30.7245V35.6624L28.53 38.9544Z" fill="url(#paint2_linear_415_7770)"/>
<path d="M156.476 30.1717C159.626 25.969 161.359 22.1943 160.328 21.1848C159.263 20.1314 155.039 21.9309 150.112 25.6947C149.234 25.2119 148.301 24.751 147.314 24.345C146.041 20.8666 144.274 17.9258 142.058 18.8146C138.886 20.0875 136.286 22.9075 134.848 24.7401C134.793 24.762 134.739 24.7949 134.684 24.8278C129.79 27.9991 126.169 32.8711 126.191 38.7856C126.191 38.7966 126.191 38.8075 126.191 38.8185L126.212 38.8075C129.307 43.8552 134.947 46.0827 140.785 46.1924C147.017 46.3131 151.034 41.6496 153.448 37.3262C159.615 37.9187 164.157 37.2384 164.509 35.779C164.838 34.3854 161.37 32.081 156.476 30.1717ZM133.949 37.392C132.281 37.392 130.931 36.0423 130.931 34.3744C130.931 32.7065 132.281 31.3568 133.949 31.3568C135.616 31.3568 136.966 32.7065 136.966 34.3744C136.966 36.0423 135.616 37.392 133.949 37.392Z" fill="url(#paint3_radial_415_7770)"/>
<path d="M71.7673 137.275C71.9163 136.419 72.9533 136.068 73.592 136.656L77.1164 139.905C77.3588 140.128 77.6887 140.23 78.015 140.184L82.7598 139.507C83.6197 139.384 84.2745 140.262 83.9121 141.051L81.912 145.407C81.7745 145.706 81.7789 146.052 81.924 146.348L84.0343 150.651C84.4167 151.431 83.7845 152.325 82.9217 152.224L78.1613 151.668C77.8339 151.629 77.5066 151.74 77.27 151.97L73.8294 155.307C73.2059 155.911 72.1603 155.586 71.9896 154.735L71.0475 150.035C70.9827 149.712 70.7761 149.435 70.4847 149.281L66.248 147.04C65.4802 146.634 65.4663 145.539 66.2235 145.113L70.4017 142.765C70.6891 142.604 70.8886 142.322 70.9451 141.997L71.7673 137.275Z" fill="white"/>
<path fill-rule="evenodd" clip-rule="evenodd" d="M140.919 97.6811L125.43 104.611C124.038 105.239 120.608 105.889 120.068 104.542C119.677 103.567 119.266 102.585 118.833 101.598L132.124 95.4268L130.624 92.4268L117.433 98.5512C116.708 97.0388 115.929 95.5137 115.095 93.9767L128.125 87.9267L126.625 84.9267L113.443 91.0469C112.939 90.1831 112.416 89.3159 111.874 88.4452C111.633 88.0456 111.506 87.6003 111.529 87.1437L115.994 72.9645C116.074 70.9552 113.658 69.7222 111.874 70.8638L101.207 75.2021C100.482 75.6702 99.5499 75.7615 98.7328 75.4533C94.314 73.8207 89.3888 73.8207 84.9815 75.4533C84.1645 75.7615 83.2324 75.6587 82.5074 75.2021L71.8401 70.8638C70.0564 69.7222 67.6284 70.9552 67.7204 72.9645L72.1853 87.1437C72.2083 87.6003 72.0817 88.0456 71.8401 88.4452C71.4599 89.0577 71.0887 89.6685 70.7265 90.2774L58.1251 84.4267L56.6251 87.4267L69.0499 93.1954C68.2019 94.7257 67.4093 96.2442 66.6695 97.751L54.1251 91.9267L52.6251 94.9267L65.2433 100.785C64.8637 101.63 64.5005 102.472 64.1532 103.309C63.6008 104.634 61.9437 105.227 60.5629 104.611L46.4203 98.2861C43.9462 97.1787 41.5297 99.8844 43.1522 101.928L58.1348 120.788C58.5491 121.302 58.7102 121.952 58.6066 122.592C53.9346 152.229 66.7523 173.242 73.8983 182.352H79.9335L81.4142 171.58C81.5983 170.324 82.7951 169.399 84.1645 169.468L88.9401 169.707C90.8733 169.799 92.8065 169.799 94.7398 169.707L99.5153 169.468C100.885 169.399 102.081 170.312 102.266 171.58L103.526 182.352H109.561C111.82 179.472 114.665 175.406 117.352 170.252C111.793 169.618 102.994 166.733 90.1486 156.425C108.097 166.945 115.832 168.563 119.986 167.539C120.679 167.364 121.969 166.979 123.419 166.546C125.484 165.929 127.873 165.215 129.313 164.88C135.318 163.5 136.286 163.864 137.239 164.223C137.381 164.277 137.524 164.33 137.683 164.378C139.498 164.908 140.325 165.915 141.363 167.18C142.471 168.528 143.819 170.171 146.866 171.844C148.833 172.929 151.457 174.367 152.987 173.362C154.852 172.141 154.334 167.768 153.114 164.88C150.134 157.836 141.342 155.77 140.744 155.644C135.968 154.596 132.778 155.745 129.456 156.941C126.95 157.843 124.368 158.772 120.974 158.806C117.456 158.844 111.076 158.306 104.537 155.093C100.214 152.365 96.7493 149.032 95.2957 146.69C105.851 157.244 117.386 158.091 122.896 156.613C125.535 147.769 126.936 137.189 125.43 125.092C125.395 124.823 125.742 124.314 126.032 123.889C126.407 123.339 126.686 122.93 125.913 123.368L144.164 101.334C145.81 99.2794 143.393 96.5737 140.919 97.6811ZM73.4219 136.855C72.7832 136.266 71.7462 136.618 71.5972 137.474L70.775 142.195C70.7185 142.52 70.519 142.802 70.2316 142.964L66.0534 145.312C65.2962 145.737 65.3101 146.832 66.0779 147.238L70.3146 149.479C70.6059 149.634 70.8126 149.911 70.8774 150.234L71.8195 154.933C71.9902 155.785 73.0358 156.11 73.6593 155.505L77.0999 152.168C77.3365 151.939 77.6638 151.828 77.9912 151.866L82.7516 152.422C83.6143 152.523 84.2466 151.629 83.8642 150.849L81.7539 146.546C81.6088 146.25 81.6044 145.905 81.7419 145.605L83.7419 141.249C84.1044 140.46 83.4496 139.582 82.5897 139.705L77.8449 140.382C77.5186 140.429 77.1886 140.326 76.9463 140.103L73.4219 136.855Z" fill="url(#paint4_radial_415_7770)"/>
<path d="M50.4198 231.187V242.536C48.9341 243.609 47.3453 244.414 45.6532 244.95C43.975 245.473 42.1316 245.734 40.1232 245.734C37.7434 245.734 35.5974 245.37 33.6853 244.641C31.7732 243.898 30.1362 242.866 28.7743 241.546C27.4262 240.211 26.3876 238.616 25.6585 236.758C24.9294 234.901 24.5649 232.859 24.5649 230.63C24.5649 228.374 24.9157 226.317 25.6172 224.46C26.3326 222.603 27.3436 221.014 28.6505 219.694C29.9573 218.359 31.5462 217.328 33.417 216.599C35.2879 215.87 37.3788 215.505 39.6899 215.505C40.8592 215.505 41.9459 215.594 42.9501 215.773C43.9543 215.938 44.8829 216.186 45.7358 216.516C46.5887 216.833 47.3797 217.225 48.1087 217.692C48.8378 218.146 49.5188 218.662 50.1515 219.24L49.0166 221.056C48.8378 221.331 48.604 221.51 48.3151 221.592C48.04 221.661 47.7304 221.592 47.3865 221.386C47.0564 221.193 46.6781 220.959 46.2516 220.684C45.8252 220.409 45.3025 220.148 44.6834 219.9C44.0781 219.639 43.3559 219.419 42.5168 219.24C41.6914 219.061 40.7079 218.972 39.5661 218.972C37.9016 218.972 36.3953 219.247 35.0472 219.797C33.699 220.333 32.5504 221.111 31.6012 222.129C30.652 223.133 29.9229 224.357 29.414 225.802C28.905 227.232 28.6505 228.842 28.6505 230.63C28.6505 232.487 28.9119 234.152 29.4346 235.624C29.9711 237.082 30.7277 238.327 31.7044 239.358C32.6948 240.376 33.8916 241.154 35.2948 241.69C36.6979 242.227 38.273 242.495 40.02 242.495C41.3957 242.495 42.6131 242.344 43.6723 242.041C44.7453 241.724 45.7908 241.291 46.8088 240.741V234.241H42.2073C41.9459 234.241 41.7327 234.165 41.5676 234.014C41.4163 233.863 41.3406 233.677 41.3406 233.457V231.187H50.4198ZM64.2494 224.171C65.7763 224.171 67.1519 224.426 68.3762 224.935C69.6005 225.444 70.646 226.166 71.5127 227.102C72.3793 228.037 73.0396 229.172 73.4936 230.506C73.9613 231.827 74.1951 233.306 74.1951 234.943C74.1951 236.593 73.9613 238.079 73.4936 239.4C73.0396 240.72 72.3793 241.848 71.5127 242.784C70.646 243.719 69.6005 244.441 68.3762 244.95C67.1519 245.446 65.7763 245.693 64.2494 245.693C62.7086 245.693 61.3193 245.446 60.0812 244.95C58.8569 244.441 57.8114 243.719 56.9448 242.784C56.0781 241.848 55.4109 240.72 54.9432 239.4C54.4893 238.079 54.2623 236.593 54.2623 234.943C54.2623 233.306 54.4893 231.827 54.9432 230.506C55.4109 229.172 56.0781 228.037 56.9448 227.102C57.8114 226.166 58.8569 225.444 60.0812 224.935C61.3193 224.426 62.7086 224.171 64.2494 224.171ZM64.2494 242.825C66.3128 242.825 67.8535 242.137 68.8715 240.762C69.8894 239.372 70.3984 237.439 70.3984 234.963C70.3984 232.473 69.8894 230.534 68.8715 229.144C67.8535 227.755 66.3128 227.06 64.2494 227.06C63.2039 227.06 62.2891 227.239 61.505 227.597C60.7346 227.954 60.0881 228.47 59.5653 229.144C59.0564 229.818 58.6712 230.651 58.4098 231.641C58.1622 232.618 58.0384 233.725 58.0384 234.963C58.0384 237.439 58.5474 239.372 59.5653 240.762C60.5971 242.137 62.1584 242.825 64.2494 242.825ZM58.3479 217.589H70.1921V220.003H58.3479V217.589ZM82.3409 228.69C83.0012 227.26 83.8128 226.146 84.7757 225.348C85.7387 224.536 86.9148 224.13 88.3042 224.13C88.7444 224.13 89.164 224.178 89.5629 224.275C89.9756 224.371 90.3402 224.522 90.6566 224.729L90.3883 227.473C90.3058 227.817 90.0994 227.989 89.7693 227.989C89.5767 227.989 89.2947 227.948 88.9233 227.865C88.5518 227.783 88.1323 227.741 87.6646 227.741C87.0043 227.741 86.4127 227.838 85.89 228.03C85.381 228.223 84.9202 228.512 84.5075 228.897C84.1086 229.268 83.744 229.736 83.4139 230.3C83.0975 230.85 82.8086 231.483 82.5472 232.198V245.404H78.8537V224.502H80.9584C81.3573 224.502 81.6324 224.577 81.7838 224.729C81.9351 224.88 82.0382 225.141 82.0933 225.513L82.3409 228.69ZM97.7654 224.502V245.404H94.0925V224.502H97.7654ZM98.5495 217.94C98.5495 218.298 98.4739 218.635 98.3226 218.951C98.185 219.254 97.9924 219.529 97.7448 219.776C97.5109 220.01 97.2289 220.196 96.8988 220.333C96.5824 220.471 96.2454 220.54 95.8877 220.54C95.53 220.54 95.193 220.471 94.8766 220.333C94.574 220.196 94.3057 220.01 94.0719 219.776C93.838 219.529 93.6523 219.254 93.5147 218.951C93.3772 218.635 93.3084 218.298 93.3084 217.94C93.3084 217.582 93.3772 217.245 93.5147 216.929C93.6523 216.599 93.838 216.317 94.0719 216.083C94.3057 215.835 94.574 215.643 94.8766 215.505C95.193 215.367 95.53 215.299 95.8877 215.299C96.2454 215.299 96.5824 215.367 96.8988 215.505C97.2289 215.643 97.5109 215.835 97.7448 216.083C97.9924 216.317 98.185 216.599 98.3226 216.929C98.4739 217.245 98.5495 217.582 98.5495 217.94ZM103.47 231.476H113.664V234.592H103.47V231.476ZM122.808 215.01V232.9H123.758C124.033 232.9 124.26 232.865 124.439 232.797C124.631 232.714 124.831 232.556 125.037 232.322L131.64 225.244C131.833 225.011 132.032 224.832 132.238 224.708C132.459 224.57 132.747 224.502 133.105 224.502H136.427L128.731 232.694C128.359 233.161 127.96 233.526 127.534 233.787C127.781 233.952 128.001 234.145 128.194 234.365C128.4 234.571 128.593 234.812 128.772 235.087L136.943 245.404H133.662C133.346 245.404 133.071 245.356 132.837 245.26C132.617 245.15 132.424 244.957 132.259 244.682L125.388 236.119C125.181 235.83 124.975 235.644 124.769 235.562C124.576 235.465 124.274 235.417 123.861 235.417H122.808V245.404H119.115V215.01H122.808ZM151.4 235.995C149.708 236.05 148.264 236.188 147.067 236.408C145.884 236.614 144.914 236.889 144.157 237.233C143.415 237.577 142.871 237.983 142.527 238.451C142.197 238.918 142.032 239.441 142.032 240.019C142.032 240.569 142.121 241.044 142.3 241.442C142.479 241.841 142.72 242.172 143.022 242.433C143.339 242.681 143.703 242.866 144.116 242.99C144.543 243.1 144.996 243.155 145.478 243.155C146.125 243.155 146.716 243.093 147.253 242.969C147.789 242.832 148.291 242.639 148.759 242.392C149.24 242.144 149.694 241.848 150.121 241.504C150.561 241.16 150.987 240.768 151.4 240.328V235.995ZM139.535 227.452C140.691 226.338 141.936 225.506 143.27 224.956C144.604 224.405 146.083 224.13 147.706 224.13C148.876 224.13 149.914 224.323 150.822 224.708C151.73 225.093 152.494 225.63 153.113 226.317C153.732 227.005 154.199 227.838 154.516 228.814C154.832 229.791 154.99 230.864 154.99 232.033V245.404H153.36C153.003 245.404 152.728 245.349 152.535 245.239C152.342 245.115 152.191 244.882 152.081 244.538L151.668 242.557C151.118 243.066 150.582 243.52 150.059 243.919C149.536 244.304 148.986 244.634 148.408 244.909C147.83 245.17 147.211 245.37 146.551 245.507C145.904 245.659 145.182 245.734 144.384 245.734C143.573 245.734 142.809 245.624 142.094 245.404C141.379 245.17 140.753 244.827 140.216 244.373C139.693 243.919 139.274 243.348 138.957 242.66C138.655 241.958 138.504 241.133 138.504 240.184C138.504 239.358 138.731 238.567 139.184 237.811C139.638 237.04 140.374 236.36 141.392 235.768C142.41 235.177 143.738 234.695 145.375 234.324C147.012 233.938 149.02 233.718 151.4 233.663V232.033C151.4 230.41 151.049 229.186 150.348 228.36C149.646 227.521 148.621 227.102 147.273 227.102C146.365 227.102 145.602 227.219 144.983 227.452C144.377 227.672 143.848 227.927 143.394 228.216C142.954 228.491 142.569 228.745 142.238 228.979C141.922 229.199 141.606 229.309 141.289 229.309C141.042 229.309 140.828 229.248 140.65 229.124C140.471 228.986 140.319 228.821 140.196 228.629L139.535 227.452Z" fill="black"/>
<defs>
<linearGradient id="paint0_linear_415_7770" x1="12.1255" y1="6.90375" x2="166.125" y2="174.404" gradientUnits="userSpaceOnUse">
<stop stop-color="#383838"/>
<stop offset="0.546875" stop-color="#515151"/>
<stop offset="0.973958" stop-color="#2B2B2B"/>
</linearGradient>
<radialGradient id="paint1_radial_415_7770" cx="0" cy="0" r="1" gradientUnits="userSpaceOnUse" gradientTransform="translate(31.2732 33.4683) rotate(90) scale(13.7164)">
<stop stop-color="#404040"/>
<stop offset="1" stop-color="#2F2F2F"/>
</radialGradient>
<linearGradient id="paint2_linear_415_7770" x1="61.6252" y1="31.9036" x2="38.1252" y2="35.4036" gradientUnits="userSpaceOnUse">
<stop stop-color="#404040"/>
<stop offset="1" stop-color="#212121"/>
</linearGradient>
<radialGradient id="paint3_radial_415_7770" cx="0" cy="0" r="1" gradientUnits="userSpaceOnUse" gradientTransform="translate(145.36 32.4245) rotate(70.983) scale(25.3636 35.3093)">
<stop stop-color="#D6591C"/>
<stop offset="1" stop-color="#AE4917"/>
</radialGradient>
<radialGradient id="paint4_radial_415_7770" cx="0" cy="0" r="1" gradientUnits="userSpaceOnUse" gradientTransform="translate(93.1252 98.404) rotate(65.8545) scale(143.012 142.579)">
<stop stop-color="#30D5C8"/>
<stop offset="0.256199" stop-color="#30D5C8"/>
<stop offset="1" stop-color="#0598B9"/>
</radialGradient>
</defs>
</svg>
