<svg width="48" height="48" viewBox="0 0 48 48" fill="none" xmlns="http://www.w3.org/2000/svg">
<rect x="0.5" y="0.5" width="47" height="47" rx="12.5" fill="black" stroke="#383838"/>
<path d="M31.875 30.6562L28.0938 26.875C28 26.8125 27.9062 26.75 27.8125 26.75H27.4062C28.375 25.625 29 24.125 29 22.5C29 18.9375 26.0625 16 22.5 16C18.9062 16 16 18.9375 16 22.5C16 26.0938 18.9062 29 22.5 29C24.125 29 25.5938 28.4062 26.75 27.4375V27.8438C26.75 27.9375 26.7812 28.0312 26.8438 28.125L30.625 31.9062C30.7812 32.0625 31.0312 32.0625 31.1562 31.9062L31.875 31.1875C32.0312 31.0625 32.0312 30.8125 31.875 30.6562ZM22.5 27.5C19.7188 27.5 17.5 25.2812 17.5 22.5C17.5 19.75 19.7188 17.5 22.5 17.5C25.25 17.5 27.5 19.75 27.5 22.5C27.5 25.2812 25.25 27.5 22.5 27.5Z" fill="white"/>
</svg>
